#N canvas 55 32 419 252 10;
#N canvas 481 34 394 350 timebase 0;
#X obj 188 36 loadbang;
#X obj 50 214 f;
#X obj 80 214 + 1;
#X obj 77 280 s tick;
#X obj 50 258 s tick-later;
#X obj 245 36 r reset-timebase;
#X msg 245 58 0;
#X msg 79 88 0;
#X obj 50 36 r reset-timebase-hard;
#X obj 50 182 metro 62.5;
#X obj 50 58 t b b b;
#X msg 108 88 0;
#X msg 50 88 1;
#X msg 188 58 1;
#X obj 50 236 t f f;
#N canvas 0 22 450 300 bpm2ms 0;
#X obj 93 50 inlet;
#X obj 93 102 swap 60000;
#X obj 93 131 /;
#X obj 93 182 outlet;
#X connect 0 0 1 0;
#X connect 1 0 2 0;
#X connect 1 1 2 1;
#X connect 2 0 3 0;
#X restore 107 135 pd bpm2ms;
#X obj 107 157 / 8;
#X obj 107 113 r bpm;
#X connect 0 0 13 0;
#X connect 1 0 2 0;
#X connect 1 0 14 0;
#X connect 2 0 1 1;
#X connect 5 0 6 0;
#X connect 6 0 1 1;
#X connect 7 0 1 1;
#X connect 8 0 10 0;
#X connect 9 0 1 0;
#X connect 10 0 12 0;
#X connect 10 1 7 0;
#X connect 10 2 11 0;
#X connect 11 0 9 0;
#X connect 12 0 9 0;
#X connect 13 0 9 0;
#X connect 14 0 4 0;
#X connect 14 1 3 0;
#X connect 15 0 16 0;
#X connect 16 0 9 1;
#X connect 17 0 15 0;
#X restore 47 71 pd timebase;
#N canvas 0 22 266 168 arrays 0;
#N canvas 0 22 450 278 (subpatch) 0;
#X array sample-1 21689 float 2;
#X coords 0 1 21689 -1 50 35 1 0 0;
#X restore 47 41 graph;
#N canvas 0 22 450 278 (subpatch) 0;
#X array sample-2-1 173509 float 2;
#X coords 0 1 173509 -1 50 35 1 0 0;
#X restore 47 91 graph;
#N canvas 0 22 450 278 (subpatch) 0;
#X array sample-2-2 173509 float 2;
#X coords 0 1 173509 -1 50 35 1 0 0;
#X restore 133 91 graph;
#X restore 47 92 pd arrays;
#N canvas 416 76 280 127 io 0;
#X obj 38 77 dac~;
#X obj 38 29 inlet~ LEFT;
#X obj 143 29 inlet~ RIGHT;
#X connect 1 0 0 0;
#X connect 2 0 0 1;
#X restore 47 181 pd io ======;
#N canvas 767 177 454 159 loops 1;
#X obj 325 92 outlet~ RIGHT;
#X obj 46 92 outlet~ LEFT;
#X obj 56 64 loop-player sample-2 sample-2-1 sample-2-2 32;
#X obj 46 44 loop-player-mono sample-1 sample-1 32;
#X connect 2 0 1 0;
#X connect 2 1 0 0;
#X connect 3 0 1 0;
#X restore 47 150 pd loops;
#X obj 169 71 r exposed-param @hv_param 0 1 0;
#X connect 3 0 2 0;
#X connect 3 1 2 1;
