#N canvas 480 63 641 587 10;
#X obj 81 117 sel 0;
#X obj 81 493 *~ 1;
#X obj 121 493 *~ 1;
#X obj 81 523 outlet~;
#X obj 121 543 outlet~;
#X obj 81 42 r tick-later;
#X obj 81 274 spigot 0;
#X obj 273 189 r all-off;
#X msg 273 211 0;
#X msg 324 426 0.5;
#X obj 324 399 sel 1;
#X msg 297 399 1;
#X obj 126 242 t f f f f;
#X obj 115 464 t f f;
#X obj 126 189 r \$1-on @hv_param 0 1 0;
#X obj 121 401 symbol \$3;
#X obj 121 425 s_playtable \$3;
#X obj 81 345 symbol \$2;
#X obj 81 371 s_playtable \$2;
#X obj 81 85 mod \$4;
#X text 443 58 \$1 = sample name;
#X text 443 78 \$2 = sample-array-1;
#X text 443 98 \$3 = sample-array-2;
#X text 443 118 \$4 = loop frequency;
#X obj 297 457 s \$1-playing;
#X connect 0 0 6 0;
#X connect 1 0 3 0;
#X connect 2 0 4 0;
#X connect 5 0 19 0;
#X connect 6 0 11 0;
#X connect 6 0 15 0;
#X connect 6 0 17 0;
#X connect 7 0 8 0;
#X connect 8 0 12 0;
#X connect 9 0 24 0;
#X connect 10 0 9 0;
#X connect 10 1 24 0;
#X connect 11 0 24 0;
#X connect 12 0 6 1;
#X connect 12 1 13 0;
#X connect 12 3 10 0;
#X connect 13 0 1 1;
#X connect 13 1 2 1;
#X connect 14 0 12 0;
#X connect 15 0 16 0;
#X connect 16 0 2 0;
#X connect 17 0 18 0;
#X connect 18 0 1 0;
#X connect 19 0 0 0;
