#N canvas 0 22 513 433 10;
#X obj 81 87 sel 0;
#X obj 81 283 *~ 1;
#X obj 81 313 outlet~;
#X obj 126 158 r \$1-on;
#X obj 81 236 symbol \$1;
#X obj 81 65 mod \$2;
#X msg 230 114 0;
#X obj 81 42 r tick-later;
#X obj 230 92 r \$3-section-to-outro;
#X obj 126 182 t f f;
#X obj 81 214 spigot 0;
#X obj 250 172 loadbang;
#X obj 250 216 - 1;
#X obj 250 194 \$2;
#X obj 228 261 s \$1-finished;
#X obj 337 129 r all-off;
#X msg 337 151 0;
#X obj 229 371 s \$1-playing;
#X msg 265 342 0.5;
#X obj 265 315 sel 1;
#X msg 229 343 1;
#X obj 43 192 bng 15 250 50 0 empty empty empty 17 7 0 10 -262144 -1
-1;
#X obj 228 239 sel 0;
#X obj 81 261 s_playtable \$1;
#X connect 0 0 10 0;
#X connect 1 0 2 0;
#X connect 3 0 9 0;
#X connect 3 0 19 0;
#X connect 4 0 23 0;
#X connect 5 0 0 0;
#X connect 5 0 22 0;
#X connect 6 0 10 1;
#X connect 7 0 5 0;
#X connect 8 0 6 0;
#X connect 9 0 10 1;
#X connect 9 1 1 1;
#X connect 10 0 4 0;
#X connect 10 0 20 0;
#X connect 11 0 13 0;
#X connect 13 0 12 0;
#X connect 15 0 16 0;
#X connect 16 0 9 0;
#X connect 18 0 17 0;
#X connect 19 0 18 0;
#X connect 19 1 17 0;
#X connect 20 0 17 0;
#X connect 21 0 4 0;
#X connect 22 0 14 0;
#X connect 23 0 1 0;
