#N canvas 492 118 641 587 10;
#X obj 81 117 sel 0;
#X obj 81 493 *~ 1;
#X obj 121 493 *~ 1;
#X obj 81 523 outlet~;
#X obj 121 543 outlet~;
#X obj 81 42 r tick-later;
#X obj 81 274 spigot 0;
#X obj 347 249 s \$1-finished;
#X obj 273 189 r all-off;
#X msg 273 211 0;
#X msg 324 426 0.5;
#X obj 324 399 sel 1;
#X msg 297 399 1;
#X obj 347 227 sel 0;
#X obj 81 139 spigot 1;
#X obj 81 161 t b b;
#X obj 126 242 t f f f f;
#X obj 115 464 t f f;
#X obj 126 189 r \$1-on @hv_param 0 1 0;
#X obj 121 401 symbol \$3;
#X obj 121 425 s_playtable \$3;
#X obj 297 457 t f f;
#X obj 377 498 change;
#X obj 81 345 symbol \$2;
#X obj 81 371 s_playtable \$2;
#X obj 81 85 mod \$4;
#X text 443 58 \$1 = sample name;
#X text 443 78 \$2 = sample-array-1;
#X text 443 98 \$3 = sample-array-2;
#X text 443 118 \$4 = loop frequency;
#X text 443 138 \$5 = initial state;
#X obj 138 146 f \$5;
#X obj 297 520 s \$1-playing;
#X obj 377 520 print \$1-playing;
#X connect 0 0 14 0;
#X connect 1 0 3 0;
#X connect 2 0 4 0;
#X connect 5 0 25 0;
#X connect 6 0 12 0;
#X connect 6 0 19 0;
#X connect 6 0 23 0;
#X connect 8 0 9 0;
#X connect 9 0 16 0;
#X connect 10 0 21 0;
#X connect 11 0 10 0;
#X connect 11 1 21 0;
#X connect 12 0 21 0;
#X connect 13 0 7 0;
#X connect 14 0 15 0;
#X connect 15 0 6 0;
#X connect 15 1 31 0;
#X connect 16 0 6 1;
#X connect 16 1 17 0;
#X connect 16 2 14 1;
#X connect 16 3 11 0;
#X connect 17 0 1 1;
#X connect 17 1 2 1;
#X connect 18 0 16 0;
#X connect 19 0 20 0;
#X connect 20 0 2 0;
#X connect 21 0 32 0;
#X connect 21 1 22 0;
#X connect 22 0 33 0;
#X connect 23 0 24 0;
#X connect 24 0 1 0;
#X connect 25 0 0 0;
#X connect 25 0 13 0;
#X connect 31 0 14 1;
