#N canvas -13 72 501 437 10;
#X obj 81 87 sel 0;
#X obj 81 283 *~ 1;
#X obj 81 313 outlet~;
#X obj 81 42 r tick-later;
#X obj 126 182 t f f;
#X obj 81 214 spigot 0;
#X obj 214 129 r all-off;
#X msg 214 151 0;
#X obj 229 371 s \$1-playing;
#X msg 256 342 0.5;
#X obj 256 315 sel 1;
#X msg 229 315 1;
#X obj 126 108 r \$1-on @hv_param 0 1 0;
#X text 310 41 \$1 = sample name;
#X obj 81 65 mod \$3;
#X obj 81 236 symbol \$2;
#X obj 81 261 s_playtable \$2;
#X text 310 61 \$2 = sample-array;
#X text 310 81 \$3 = loop frequency;
#X connect 0 0 5 0;
#X connect 1 0 2 0;
#X connect 3 0 14 0;
#X connect 4 0 5 1;
#X connect 4 1 1 1;
#X connect 5 0 11 0;
#X connect 5 0 15 0;
#X connect 6 0 7 0;
#X connect 7 0 4 0;
#X connect 9 0 8 0;
#X connect 10 0 9 0;
#X connect 10 1 8 0;
#X connect 11 0 8 0;
#X connect 12 0 4 0;
#X connect 12 0 10 0;
#X connect 14 0 0 0;
#X connect 15 0 16 0;
#X connect 16 0 1 0;
